<svg width="25" height="32" viewBox="0 0 25 32" fill="none" xmlns="http://www.w3.org/2000/svg">
<path d="M13.2803 6.4939C12.849 6.4939 12.499 6.15123 12.499 5.72902C12.499 2.77208 14.949 0.375 17.9677 0.375C18.4006 0.375 18.7489 0.717658 18.7489 1.13986C18.7489 4.09681 16.3005 6.4939 13.2803 6.4939Z" fill="#2E2C36"/>
<path d="M24.6871 22.5996C24.9888 22.8215 25.0871 23.2238 24.9169 23.5542C22.1669 28.9419 19.9731 31.625 17.9685 31.625C17.0357 31.625 16.1185 31.3298 15.2248 30.7546C13.9233 29.9148 12.2436 29.8796 10.9061 30.6627C9.82329 31.2977 8.79207 31.625 7.8124 31.625C4.864 31.625 0 22.7359 0 17.8575C0 12.6504 2.78902 8.6792 7.03115 8.6792C9.02644 8.6792 10.7499 8.9668 12.1967 9.55116C12.8108 9.79897 13.5045 9.78062 14.1029 9.49914C15.2779 8.94691 16.8263 8.6792 18.7498 8.6792C21.0967 8.6792 23.1419 9.82345 24.8433 12.0446C25.1013 12.3827 25.0325 12.8615 24.6871 13.1154C22.7888 14.509 21.8748 16.0754 21.8748 17.8575C21.8748 19.6397 22.7888 21.2061 24.6871 22.5996Z" fill="#2E2C36"/>
</svg>
